<svg xmlns="http://www.w3.org/2000/svg" width="519.985" height="504.52" viewBox="0 0 519.985 504.52">
  <g id="Logo" transform="translate(-136.103 -134.332)">
    <g id="Subtraction_1" data-name="Subtraction 1" transform="translate(157.611 456.545)">
      <path d="M 153.7799072265625 157.73974609375 C 134.2966766357422 154.5345153808594 115.554328918457 148.2541046142578 98.06497192382813 139.0689849853516 C 80.80881500244141 130.0063934326172 65.13505554199219 118.3150482177734 51.47909545898438 104.3197479248047 C 37.80975341796875 90.31078338623047 26.50123405456543 74.34044647216797 17.86767387390137 56.85234832763672 C 9.099205017089844 39.09114456176758 3.281700849533081 20.13497543334961 0.5728244185447693 0.5000070333480835 L 7.351299285888672 0.5000070333480835 C 18.19229888916016 77.70186614990234 76.95697021484375 138.3678588867188 153.7799072265625 151.6636962890625 L 153.7799072265625 157.73974609375 Z" stroke="none"/>
      <path d="M 153.2799072265625 157.1498260498047 L 153.2799072265625 152.0840759277344 C 76.59617614746094 138.6270141601563 17.92960548400879 78.06586456298828 6.917139530181885 1.000012040138245 L 1.147448897361755 1.000012040138245 C 3.882219791412354 20.37922859191895 9.655951499938965 39.08940505981445 18.31601524353027 56.63101196289063 C 26.9262866973877 74.07190704345703 38.20434951782227 89.99924468994141 51.83695220947266 103.9705505371094 C 65.45620727539063 117.9282379150391 81.08778381347656 129.5881195068359 98.29745483398438 138.6262969970703 C 115.5651473999023 147.6950073242188 134.0582733154297 153.9245758056641 153.2799072265625 157.1498260498047 M 154.2799072265625 158.3277893066406 L 154.2799072265625 158.3277435302734 C 134.5351257324219 155.1437835693359 115.5434722900391 148.8131561279297 97.83249664306641 139.5116424560547 C 80.52976989746094 130.4245758056641 64.81380462646484 118.7017593383789 51.12122344970703 104.6689300537109 C 37.4151611328125 90.62232208251953 26.07620429992676 74.60899353027344 17.4193286895752 57.07367706298828 C 8.542515754699707 39.09301376342773 2.68180775642395 19.8906364440918 -4.720051947515458e-06 1.20239255920751e-05 L 7.786495208740234 1.20239255920751e-05 C 18.4598503112793 77.32498931884766 77.33070373535156 138.1043090820313 154.2799072265625 151.2423248291016 L 154.2799072265625 158.3267364501953 L 154.2799072265625 158.3277893066406 Z" stroke="none" fill="#707070"/>
    </g>
    <g id="Subtraction_2" data-name="Subtraction 2" transform="translate(182.58 174.662)">
      <path d="M 0.6469740867614746 136.2278289794922 C 5.146081924438477 119.081672668457 12.09689617156982 102.6842346191406 21.31115531921387 87.48262023925781 C 30.47807502746582 72.35919952392578 41.75557708740234 58.62532043457031 54.83039474487305 46.66244125366211 C 67.94805908203125 34.66032028198242 82.66995239257813 24.62930107116699 98.587158203125 16.8480396270752 C 114.7026977539063 8.969799995422363 131.8451995849609 3.500420093536377 149.5472717285156 0.5880303382873535 L 149.5472564697266 7.527993202209473 C 81.64765167236328 19.28639221191406 26.06474304199219 69.73979949951172 7.766874313354492 136.2268981933594 L 0.6469740867614746 136.2278289794922 Z" stroke="none"/>
      <path d="M 1.296292543411255 135.7277526855469 L 7.386302947998047 135.7269439697266 C 25.80136680603027 69.37019348144531 81.27025604248047 19.00967025756836 149.0472564697266 7.107643604278564 L 149.0472717285156 1.177964329719543 C 131.599365234375 4.105925559997559 114.7019958496094 9.526678085327148 98.80673217773438 17.2972412109375 C 82.93251800537109 25.0575008392334 68.25029754638672 35.06150054931641 55.16791534423828 47.03131866455078 C 42.12819671630859 58.96210098266602 30.88099670410156 72.65908050537109 21.73873519897461 87.74178314208984 C 12.66185569763184 102.7167739868164 5.787352561950684 118.8554840087891 1.296292543411255 135.7277526855469 M 8.147995948791504 136.7279205322266 L 8.146335601806641 136.7274627685547 L 8.146495819091797 136.7268371582031 L -4.13574207414058e-06 136.7279205322266 C 4.506035804748535 119.3059997558594 11.5325756072998 102.6506576538086 20.88357543945313 87.22344207763672 C 30.07513618469238 72.05937957763672 41.3829345703125 58.28855895996094 54.49287414550781 46.29354095458984 C 67.64583587646484 34.25914001464844 82.40739440917969 24.20112037658691 98.3675537109375 16.39883995056152 C 114.7033157348633 8.41294002532959 132.0908813476563 2.895560264587402 150.0472717285156 2.661132612047368e-07 L 150.0472564697266 7.949340343475342 C 82.02637481689453 19.56338119506836 26.3278751373291 70.11166381835938 8.147995948791504 136.7279205322266 Z" stroke="none" fill="#707070"/>
    </g>
    <g id="Subtraction_3" data-name="Subtraction 3" transform="translate(592.265 276.264)">
      <path d="M 0.4999860227108002 274.7586669921875 L 0.4999860227108002 266.8882751464844 C 35.60222244262695 232.8768615722656 54.9330940246582 187.2447357177734 54.9330940246582 138.3760070800781 C 54.9330940246582 89.50729370117188 35.60222244262695 43.87517166137695 0.4999860227108002 9.863766670227051 L 0.4999860227108002 1.129348158836365 C 9.560578346252441 9.406661033630371 17.82460403442383 18.60828018188477 25.07512855529785 28.49417877197266 C 32.60862731933594 38.76596450805664 39.09173583984375 49.8370361328125 44.34437942504883 61.39982223510742 C 49.69405746459961 73.17624664306641 53.80691528320313 85.55217742919922 56.56877136230469 98.18378448486328 C 59.40598678588867 111.1604309082031 60.84455871582031 124.5376052856445 60.84455871582031 137.9436798095703 C 60.84455871582031 151.3498229980469 59.40598678588867 164.7270660400391 56.56877136230469 177.7038269042969 C 53.80691528320313 190.3355407714844 49.69405746459961 202.7115325927734 44.34437942504883 214.4880065917969 C 39.09170150756836 226.0509338378906 32.60859298706055 237.1220397949219 25.07512855529785 247.3937530517578 C 17.8248405456543 257.2794189453125 9.561023712158203 266.4808959960938 0.4999860227108002 274.7586669921875 Z" stroke="none"/>
      <path d="M 0.9999859929084778 273.6199340820313 C 9.70915699005127 265.5647888183594 17.66487884521484 256.6520385742188 24.67194938659668 247.0980682373047 C 32.18505859375 236.8540344238281 38.65066528320313 225.8128509521484 43.88912963867188 214.2811737060547 C 49.22426986694336 202.5367431640625 53.32598495483398 190.1943969726563 56.08030700683594 177.5970001220703 C 58.90984344482422 164.6552886962891 60.34455871582031 151.31396484375 60.34455871582031 137.9436798095703 C 60.34455871582031 124.5734634399414 58.90984344482422 111.2322158813477 56.08030700683594 98.29060363769531 C 53.32598495483398 85.69332122802734 49.22426986694336 73.35103607177734 43.88912963867188 61.60664367675781 C 38.65069961547852 50.07510757446289 32.18512725830078 39.03396606445313 24.67194938659668 28.78985786437988 C 17.6646614074707 19.23567581176758 9.708756446838379 10.32279872894287 0.9999859929084778 2.268096685409546 L 0.9999859929084778 9.652156829833984 C 36.10636520385742 43.74333953857422 55.4330940246582 89.43960571289063 55.4330940246582 138.3760070800781 C 55.4330940246582 187.3123931884766 36.10636520385742 233.0086975097656 0.9999859929084778 267.0998840332031 L 0.9999859929084778 273.6199340820313 M -1.398577023792313e-05 275.8880004882813 L -1.398577023792313e-05 275.8860778808594 L -1.398577023792313e-05 266.6763610839844 C 35.101806640625 232.7441864013672 54.4330940246582 187.1797790527344 54.4330940246582 138.3760070800781 C 54.4330940246582 89.57235717773438 35.10169982910156 44.00775146484375 -1.398577023792313e-05 10.07567882537842 L -1.398577023792313e-05 2.441406365960574e-07 C 9.415628433227539 8.497000694274902 17.98723602294922 17.9846076965332 25.47830772399902 28.19846534729004 C 33.03205871582031 38.49785614013672 39.53269958496094 49.59882354736328 44.79959487915039 61.19303512573242 C 50.1638069152832 73.00146484375 54.28787994384766 85.41103363037109 57.05723571777344 98.07700347900391 C 59.90205764770508 111.0885009765625 61.34455871582031 124.5015716552734 61.34455871582031 137.9436798095703 C 61.34455871582031 151.3858642578125 59.90205764770508 164.7989959716797 57.05723571777344 177.8106079101563 C 54.28787994384766 190.4766845703125 50.1638069152832 202.8863220214844 44.79959487915039 214.6947784423828 C 39.53269958496094 226.2890319824219 33.03205871582031 237.3900756835938 25.47830772399902 247.6894683837891 C 17.98641395568848 257.904541015625 9.414772033691406 267.3915100097656 0.001450299983844161 275.88671875 L -1.398577023792313e-05 275.8880004882813 Z" stroke="none" fill="#707070"/>
    </g>
    <g id="Ellipse_1" data-name="Ellipse 1" transform="translate(206.049 206.844)" fill="#fff" stroke="#000" stroke-width="7">
      <circle cx="195.7" cy="195.7" r="195.7" stroke="none"/>
      <circle cx="195.7" cy="195.7" r="192.2" fill="none"/>
    </g>
    <circle id="Ellipse_12" data-name="Ellipse 12" cx="159.411" cy="159.411" r="159.411" transform="translate(242.338 243.132)" fill="#f5e9ad"/>
    <circle id="Ellipse_13" data-name="Ellipse 13" cx="126.579" cy="126.579" r="126.579" transform="translate(275.171 276.829)" fill="#ffdd64"/>
    <g id="scissors" transform="translate(442.523 294.093) rotate(177.265)">
      <path id="imagebot_18" d="M51.16,3.51c3.964,6.488-.515,10.637-6.552,13.721C36.067,21.593,14.933,19.465,7.7,15.1,1.058,11.062-1.889,5.212,1.273,0" transform="translate(21.332 138.69)" fill="#f6e58d" stroke="#000" stroke-linecap="round" stroke-linejoin="round" stroke-width="5"/>
      <path id="imagebot_17" d="M.038,94.44c-.912,16.7,14.778,42.866,33.361,49.036,9.6,3.085,31.193,4.042,38.818-1.6,13.06-9.573,19.655-22.018,22.644-37.335a69.871,69.871,0,0,0,1.01-16.7C94.5,69.163,80.1,58.184,73.953,53.882a273.609,273.609,0,0,1,3-40.654C79.874-7.407,51.057-2.206,48.514,17.154c-1.19,9.063-3.251,16.5-5.434,36.793-3.345-10.935-8.968-26.635-10.855-37.484C29.113-1.44,3.445,9.293,7.709,31.1c2.9,14.849,7.52,25.784,10.359,39.93C15.084,73.38.99,77.1.038,94.44Z" transform="translate(0 0)" fill="#f6e58d" stroke="#000" stroke-linecap="round" stroke-linejoin="round" stroke-width="5"/>
      <path id="imagebot_16" d="M0,2.468C3.23,15.934,7.968,22.1,9.732,25.294,7.477,16.87,6.681,14.8,4.951,5.669A18.977,18.977,0,0,1,4.828,0L0,2.468Z" transform="translate(40.694 51.063)" fill="#f6e58d"/>
      <path id="imagebot_15" d="M0,.155C.134,8.282,2.246,18.036,5.288,24.12,4.962,15.321,4.7,8.375,4.191,0,4.169,0,2.105.16,0,.16Z" transform="translate(71.794 53.833)" fill="#f6e58d"/>
      <path id="imagebot_14" d="M0,18.508C4.293,8.19,4.229,5.212,5.526,0" transform="translate(62.038 115.608)" fill="none" stroke="#000" stroke-linecap="round" stroke-linejoin="round" stroke-width="5"/>
      <path id="imagebot_13" d="M0,26.486C1.8,14.253,1.516,8.19,1.974,0" transform="translate(52.058 108.375)" fill="none" stroke="#000" stroke-linecap="round" stroke-linejoin="round" stroke-width="5"/>
      <path id="imagebot_12" d="M1.115,17.87C1.219,9.36.479,5.318,0,0" transform="translate(39.01 117.522)" fill="none" stroke="#000" stroke-linecap="round" stroke-linejoin="round" stroke-width="5"/>
      <path id="imagebot_11" d="M4.879,0C9.019,17.849,3.6,24.869,0,33.91,5.473,24.55,12.913,21.359,9.4.5L4.879,0Z" transform="translate(10.764 69.997)" fill="#f6e58d"/>
    </g>
    <g id="paper" transform="matrix(0.63, 0.777, -0.777, 0.63, 253.104, 393.259)">
      <g id="g3915-6-1-6-3-8-9-4" transform="translate(0 0)">
        <path id="path3894-6-1-0-5-5-2-9" d="M51.16,3.458c3.964,6.516-.515,10.689-6.552,13.772-8.542,4.36-29.675,2.236-36.91-2.142C1.058,11.07-1.889,5.142,1.273,0" transform="translate(48.6 138.709)" fill="#f6e58d" stroke="#000" stroke-linecap="round" stroke-linejoin="round" stroke-width="5"/>
        <path id="path3112-2-8-6-8-2-9-8" d="M.758,99.3c-4.306,8.528,10.442,13.817,26.61,16.8,6.278,1.16,18.622,22.285,33.3,27.334,9.548,3.285,31.194,4.091,38.818-1.522,13.055-9.612,19.657-22,22.641-37.323a69.785,69.785,0,0,0,1.018-16.7c-1.013-16.648,13.776-57.084,12.639-61.351-3.157-11.855-16.884-4.908-19.745,2.713-1.386,3.691-14.739,29.579-14.817,24.623a273.5,273.5,0,0,1,2.995-40.644c2.927-20.64-25.891-15.437-28.434,3.917-1.191,9.067-3.251,16.5-5.434,36.793C67,43.012,61.379,27.312,59.493,16.458c-3.112-17.9-28.78-7.169-24.516,14.634,2.9,14.848,11.063,41.029,9.787,66.829C34.739,89.562,13.747,73.575.757,99.3Z" transform="translate(0)" fill="#f6e58d" stroke="#000" stroke-linecap="round" stroke-linejoin="round" stroke-width="5"/>
        <path id="path3882-6-1-33-9-9-7-9" d="M0,2.468C3.23,15.935,7.969,22.109,9.732,25.252,7.477,16.863,6.682,14.8,4.952,5.664A18.9,18.9,0,0,1,4.828,0Z" transform="translate(67.962 51.029)" fill="#f6e58d"/>
        <path id="path3884-6-1-2-9-6-6-0" d="M0,.413C.135,8.532,2.246,18.29,5.288,24.382,5.149,19.951,4.843,12.338,4.5,5.607A8.275,8.275,0,0,1,6.266,0,23,23,0,0,1,0,.413Z" transform="translate(99.063 53.541)" fill="#f6e58d"/>
        <path id="path3886-8-5-4-3-7-0-8" d="M0,18.514C4.294,8.219,4.229,5.255,5.526,0" transform="translate(89.306 115.568)" fill="none" stroke="#000" stroke-linecap="round" stroke-linejoin="round" stroke-width="5"/>
        <path id="path3888-4-4-9-8-4-7-4" d="M0,26.484C1.8,14.278,1.515,8.239,1.974,0" transform="translate(79.326 108.343)" fill="none" stroke="#000" stroke-linecap="round" stroke-linejoin="round" stroke-width="5"/>
        <path id="path3890-1-8-5-1-8-9-7" d="M1.116,17.9C1.219,9.414.479,5.4,0,0" transform="translate(66.277 117.455)" fill="none" stroke="#000" stroke-linecap="round" stroke-linejoin="round" stroke-width="5"/>
      </g>
    </g>
    <g id="rock" transform="translate(527.168 439.667)">
      <g id="g32290" transform="translate(114.3 0) rotate(80.881)">
        <path id="path32292" d="M51.159,16.116c3.964-6.488-.515-10.637-6.552-13.721C36.066-1.966,14.933.161,7.7,4.522c-6.64,4.042-9.587,9.892-6.426,15.1" transform="translate(21.332)" fill="#f6e58d" stroke="#000" stroke-linecap="round" stroke-linejoin="round" stroke-width="5"/>
        <path id="path32294" d="M.038,51.512C-.874,34.813,14.815,8.647,33.4,2.478c9.6-3.085,31.193-4.042,38.817,1.6,13.06,9.573,19.654,22.018,22.643,37.334a69.867,69.867,0,0,1,1.01,16.7C94.78,78.97,88.191,94.491,73.951,92.069c-4.349,17.1-30.746,13-30.873-.064-13.471,15.149-33.067,1.018-25.011-17.082C15.083,72.572.99,68.85.038,51.512Z" transform="translate(0 12.362)" fill="#f6e58d" stroke="#000" stroke-linecap="round" stroke-linejoin="round" stroke-width="5"/>
        <path id="path32296" d="M6.279,22.339C10.458,9.137,8.784,3.643,8.919,0,6.505,8.38,6.117,10.567,2.89,19.278A12.28,12.28,0,0,1,0,23.913l6.507.958a8.346,8.346,0,0,1-.228-2.532Z" transform="translate(39.014 81.411)" fill="#f6e58d"/>
        <path id="path32298" d="M3.785,24.538C5.393,16.571,6.466,6.594,4.8,0,3.977,4.394,1.1,15.612,0,22.253c-.014,0,.013-.012,3.784,2.285Z" transform="translate(71.891 81.542)" fill="#f6e58d"/>
        <path id="path32300" d="M0,0C4.293,10.318,4.229,13.3,5.526,18.508" transform="translate(62.036 24.199)" fill="none" stroke="#000" stroke-linecap="round" stroke-linejoin="round" stroke-width="5"/>
        <path id="path32302" d="M0,0C1.8,12.232,1.516,18.295,1.974,26.485" transform="translate(52.057 23.455)" fill="none" stroke="#000" stroke-linecap="round" stroke-linejoin="round" stroke-width="5"/>
        <path id="path32304" d="M1.115,0C1.219,8.509.479,12.551,0,17.869" transform="translate(39.009 22.923)" fill="none" stroke="#000" stroke-linecap="round" stroke-linejoin="round" stroke-width="5"/>
        <path id="path32306" d="M4.879,33.909C9.019,16.061,3.6,9.041,0,0,5.473,9.36,12.913,12.551,9.4,33.409l-4.525.5Z" transform="translate(10.764 54.407)" fill="#f6e58d"/>
      </g>
    </g>
    <g id="Ellipse_2" data-name="Ellipse 2" transform="translate(185.313 378.783)" fill="#fff" stroke="#000" stroke-width="5">
      <ellipse cx="24.624" cy="24.192" rx="24.624" ry="24.192" stroke="none"/>
      <ellipse cx="24.624" cy="24.192" rx="22.124" ry="21.692" fill="none"/>
    </g>
    <g id="Ellipse_3" data-name="Ellipse 3" transform="translate(466.982 552.45)" fill="#fff" stroke="#030303" stroke-width="5">
      <ellipse cx="24.624" cy="24.192" rx="24.624" ry="24.192" stroke="none"/>
      <ellipse cx="24.624" cy="24.192" rx="22.124" ry="21.692" fill="none"/>
    </g>
    <g id="Ellipse_11" data-name="Ellipse 11" transform="translate(567.208 263.005)" fill="#fff" stroke="#030303" stroke-width="5">
      <ellipse cx="24.624" cy="24.192" rx="24.624" ry="24.192" stroke="none"/>
      <ellipse cx="24.624" cy="24.192" rx="22.124" ry="21.692" fill="none"/>
    </g>
    <g id="Ellipse_6" data-name="Ellipse 6" transform="translate(308.003 590.467)" fill="#fff" stroke="#030303" stroke-width="5">
      <ellipse cx="24.624" cy="24.192" rx="24.624" ry="24.192" stroke="none"/>
      <ellipse cx="24.624" cy="24.192" rx="22.124" ry="21.692" fill="none"/>
    </g>
    <g id="Symbol_1_1" data-name="Symbol 1 – 1">
      <text id="R_P_S" data-name="R P S" transform="translate(320 350)" font-size="70" font-family="SegoeUI, Segoe UI" letter-spacing="0.009em"><tspan x="0" y="76">R P S</tspan></text>
    </g>
  </g>
</svg>
