<svg xmlns="http://www.w3.org/2000/svg" width="140.951" height="163.433" viewBox="0 0 140.951 163.433">
  <g id="p" transform="matrix(1, -0.001, 0.001, 1, 2.595, 2.603)">
    <g id="g3915-6-1-6-3-8-9-4" transform="translate(0 0)">
      <path id="path3894-6-1-0-5-5-2-9" d="M51.16,3.458c3.964,6.516-.515,10.689-6.552,13.772-8.542,4.36-29.675,2.236-36.91-2.142C1.058,11.07-1.889,5.142,1.273,0" transform="translate(48.6 138.709)" fill="#f5e9ad" stroke="#000" stroke-linecap="round" stroke-linejoin="round" stroke-width="5"/>
      <path id="path3112-2-8-6-8-2-9-8" d="M.758,99.3c-4.306,8.528,10.442,13.817,26.61,16.8,6.278,1.16,18.622,22.285,33.3,27.334,9.548,3.285,31.194,4.091,38.818-1.522,13.055-9.612,19.657-22,22.641-37.323a69.785,69.785,0,0,0,1.018-16.7c-1.013-16.648,13.776-57.084,12.639-61.351-3.157-11.855-16.884-4.908-19.745,2.713-1.386,3.691-14.739,29.579-14.817,24.623a273.5,273.5,0,0,1,2.995-40.644c2.927-20.64-25.891-15.437-28.434,3.917-1.191,9.067-3.251,16.5-5.434,36.793C67,43.012,61.379,27.312,59.493,16.458c-3.112-17.9-28.78-7.169-24.516,14.634,2.9,14.848,11.063,41.029,9.787,66.829C34.739,89.562,13.747,73.575.757,99.3Z" transform="translate(0)" fill="#f5e9ad" stroke="#000" stroke-linecap="round" stroke-linejoin="round" stroke-width="5"/>
      <path id="path3882-6-1-33-9-9-7-9" d="M0,2.468C3.23,15.935,7.969,22.109,9.732,25.252,7.477,16.863,6.682,14.8,4.952,5.664A18.9,18.9,0,0,1,4.828,0Z" transform="translate(67.962 51.029)" fill="#f5e9ad"/>
      <path id="path3884-6-1-2-9-6-6-0" d="M0,.413C.135,8.532,2.246,18.29,5.288,24.382,5.149,19.951,4.843,12.338,4.5,5.607A8.275,8.275,0,0,1,6.266,0,23,23,0,0,1,0,.413Z" transform="translate(99.063 53.541)" fill="#f5e9ad"/>
      <path id="path3886-8-5-4-3-7-0-8" d="M0,18.514C4.294,8.219,4.229,5.255,5.526,0" transform="translate(89.306 115.568)" fill="none" stroke="#000" stroke-linecap="round" stroke-linejoin="round" stroke-width="5"/>
      <path id="path3888-4-4-9-8-4-7-4" d="M0,26.484C1.8,14.278,1.515,8.239,1.974,0" transform="translate(79.326 108.343)" fill="none" stroke="#000" stroke-linecap="round" stroke-linejoin="round" stroke-width="5"/>
      <path id="path3890-1-8-5-1-8-9-7" d="M1.116,17.9C1.219,9.414.479,5.4,0,0" transform="translate(66.277 117.455)" fill="none" stroke="#000" stroke-linecap="round" stroke-linejoin="round" stroke-width="5"/>
    </g>
  </g>
</svg>
