<svg xmlns="http://www.w3.org/2000/svg" width="289" height="295" viewBox="0 0 289 295">
  <g id="rock" transform="translate(-451 -582)">
    <circle id="Ellipse_16" data-name="Ellipse 16" cx="144.5" cy="144.5" r="144.5" transform="translate(451 582)" fill="#f5e9ad"/>
    <text id="_" data-name="+" transform="translate(479 583)" fill="#3b3b3b" font-size="100" font-family="SegoeUI, Segoe UI" letter-spacing="0.009em"><tspan x="0" y="108">+</tspan></text>
    <text id="_2" data-name="+" transform="translate(636 584)" fill="#3b3b3b" font-size="80" font-family="SegoeUI, Segoe UI" letter-spacing="0.009em"><tspan x="0" y="86">+</tspan></text>
    <text id="_3" data-name="+" transform="translate(634 765)" fill="#3b3b3b" font-size="70" font-family="SegoeUI, Segoe UI" letter-spacing="0.009em"><tspan x="0" y="76">+</tspan></text>
    <g id="rock-2" data-name="rock" transform="translate(660.956 669.848) rotate(97)">
      <g id="g32290" transform="translate(114.3 0) rotate(80.881)">
        <path id="path32292" d="M51.159,16.116c3.964-6.488-.515-10.637-6.552-13.721C36.066-1.966,14.933.161,7.7,4.522c-6.64,4.042-9.587,9.892-6.426,15.1" transform="translate(21.332)" fill="#ffdd64" stroke="#000" stroke-linecap="round" stroke-linejoin="round" stroke-width="5"/>
        <path id="path32294" d="M.038,51.512C-.874,34.813,14.815,8.647,33.4,2.478c9.6-3.085,31.193-4.042,38.817,1.6,13.06,9.573,19.654,22.018,22.643,37.334a69.867,69.867,0,0,1,1.01,16.7C94.78,78.97,88.191,94.491,73.951,92.069c-4.349,17.1-30.746,13-30.873-.064-13.471,15.149-33.067,1.018-25.011-17.082C15.083,72.572.99,68.85.038,51.512Z" transform="translate(0 12.362)" fill="#ffdd64" stroke="#000" stroke-linecap="round" stroke-linejoin="round" stroke-width="5"/>
        <path id="path32296" d="M6.279,22.339C10.458,9.137,8.784,3.643,8.919,0,6.505,8.38,6.117,10.567,2.89,19.278A12.28,12.28,0,0,1,0,23.913l6.507.958a8.346,8.346,0,0,1-.228-2.532Z" transform="translate(39.014 81.411)" fill="#ffdd64"/>
        <path id="path32298" d="M3.785,24.538C5.393,16.571,6.466,6.594,4.8,0,3.977,4.394,1.1,15.612,0,22.253c-.014,0,.013-.012,3.784,2.285Z" transform="translate(71.891 81.542)" fill="#ffdd64"/>
        <path id="path32300" d="M0,0C4.293,10.318,4.229,13.3,5.526,18.508" transform="translate(62.036 24.199)" fill="none" stroke="#000" stroke-linecap="round" stroke-linejoin="round" stroke-width="5"/>
        <path id="path32302" d="M0,0C1.8,12.232,1.516,18.295,1.974,26.485" transform="translate(52.057 23.455)" fill="none" stroke="#000" stroke-linecap="round" stroke-linejoin="round" stroke-width="5"/>
        <path id="path32304" d="M1.115,0C1.219,8.509.479,12.551,0,17.869" transform="translate(39.009 22.923)" fill="none" stroke="#000" stroke-linecap="round" stroke-linejoin="round" stroke-width="5"/>
        <path id="path32306" d="M4.879,33.909C9.019,16.061,3.6,9.041,0,0,5.473,9.36,12.913,12.551,9.4,33.409l-4.525.5Z" transform="translate(10.764 54.407)" fill="#ffdd64"/>
      </g>
    </g>
  </g>
</svg>
