<svg xmlns="http://www.w3.org/2000/svg" width="101.016" height="163.364" viewBox="0 0 101.016 163.364">
  <g id="s" transform="translate(2.509 2.523)">
    <path id="imagebot_18" d="M51.16,3.51c3.964,6.488-.515,10.637-6.552,13.721C36.067,21.593,14.933,19.465,7.7,15.1,1.058,11.062-1.889,5.212,1.273,0" transform="translate(21.332 138.69)" fill="#f5e9ad" stroke="#000" stroke-linecap="round" stroke-linejoin="round" stroke-width="5"/>
    <path id="imagebot_17" d="M.038,94.44c-.912,16.7,14.778,42.866,33.361,49.036,9.6,3.085,31.193,4.042,38.818-1.6,13.06-9.573,19.655-22.018,22.644-37.335a69.871,69.871,0,0,0,1.01-16.7C94.5,69.163,80.1,58.184,73.953,53.882a273.609,273.609,0,0,1,3-40.654C79.874-7.407,51.057-2.206,48.514,17.154c-1.19,9.063-3.251,16.5-5.434,36.793-3.345-10.935-8.968-26.635-10.855-37.484C29.113-1.44,3.445,9.293,7.709,31.1c2.9,14.849,7.52,25.784,10.359,39.93C15.084,73.38.99,77.1.038,94.44Z" transform="translate(0 0)" fill="#f5e9ad" stroke="#000" stroke-linecap="round" stroke-linejoin="round" stroke-width="5"/>
    <path id="imagebot_16" d="M0,2.468C3.23,15.934,7.968,22.1,9.732,25.294,7.477,16.87,6.681,14.8,4.951,5.669A18.977,18.977,0,0,1,4.828,0L0,2.468Z" transform="translate(40.694 51.063)" fill="#f5e9ad"/>
    <path id="imagebot_15" d="M0,.155C.134,8.282,2.246,18.036,5.288,24.12,4.962,15.321,4.7,8.375,4.191,0,4.169,0,2.105.16,0,.16Z" transform="translate(71.794 53.833)" fill="#f5e9ad"/>
    <path id="imagebot_14" d="M0,18.508C4.293,8.19,4.229,5.212,5.526,0" transform="translate(62.038 115.608)" fill="none" stroke="#000" stroke-linecap="round" stroke-linejoin="round" stroke-width="5"/>
    <path id="imagebot_13" d="M0,26.486C1.8,14.253,1.516,8.19,1.974,0" transform="translate(52.058 108.375)" fill="none" stroke="#000" stroke-linecap="round" stroke-linejoin="round" stroke-width="5"/>
    <path id="imagebot_12" d="M1.115,17.87C1.219,9.36.479,5.318,0,0" transform="translate(39.01 117.522)" fill="none" stroke="#000" stroke-linecap="round" stroke-linejoin="round" stroke-width="5"/>
    <path id="imagebot_11" d="M4.879,0C9.019,17.849,3.6,24.869,0,33.91,5.473,24.55,12.913,21.359,9.4.5L4.879,0Z" transform="translate(10.764 69.997)" fill="#f5e9ad"/>
  </g>
</svg>
